<svg id="圖層_1" data-name="圖層 1" xmlns="http://www.w3.org/2000/svg" viewBox="0 0 141.73 141.73"><defs><style>.cls-1{fill:#1e1e1e;}</style></defs><title>busplay</title><path class="cls-1" d="M110.37,6.69h-79A13.68,13.68,0,0,0,17.69,20.36v85.22A12.77,12.77,0,0,0,23,115.65a1.75,1.75,0,0,0-.07.46v9.22A9.61,9.61,0,0,0,32.68,135h2.63A9.61,9.61,0,0,0,45,125.33v-6.08H96.7v6.08a9.61,9.61,0,0,0,9.72,9.72h2.63a9.61,9.61,0,0,0,9.72-9.72v-9A13.74,13.74,0,0,0,124,105.57V20.36A13.68,13.68,0,0,0,110.37,6.69ZM117.77,92v13.6a7.41,7.41,0,0,1-7.4,7.4H32.68c-3.95,0-8.72-3.3-8.72-7.4V92ZM29.23,118.74a13.46,13.46,0,0,0,3.45.5h6.08v6.08a3.37,3.37,0,0,1-3.45,3.45H32.68a3.37,3.37,0,0,1-3.45-3.45Zm73.75.5h7.4a14.74,14.74,0,0,0,2.13-.18v6.26a3.37,3.37,0,0,1-3.45,3.45h-2.63a3.37,3.37,0,0,1-3.45-3.45ZM117.77,34V85.7H24V34Zm0-13.67v7.4H24v-7.4a7.41,7.41,0,0,1,7.4-7.4h79A7.41,7.41,0,0,1,117.77,20.36Z"/><path class="cls-1" d="M65.6,17.22H48.48a3.13,3.13,0,1,0,0,6.27H65.6a3.13,3.13,0,0,0,0-6.27Z"/><path class="cls-1" d="M81.4,17.22h-4a3.13,3.13,0,1,0,0,6.27h4a3.13,3.13,0,0,0,0-6.27Z"/><path class="cls-1" d="M37.94,110.76a8.4,8.4,0,1,0-8.4-8.4A8.41,8.41,0,0,0,37.94,110.76Zm-2.13-8.4a2.13,2.13,0,1,1,2.13,2.13A2.14,2.14,0,0,1,35.81,102.35Z"/><path class="cls-1" d="M103.79,110.76a8.4,8.4,0,1,0-8.4-8.4A8.41,8.41,0,0,0,103.79,110.76Zm-2.13-8.4a2.13,2.13,0,1,1,2.13,2.13A2.14,2.14,0,0,1,101.65,102.35Z"/><path class="cls-1" d="M58.21,80.34a2.9,2.9,0,0,0,2.9,0l30.31-17.5a2.9,2.9,0,0,0,0-5L61.11,40.32a2.9,2.9,0,0,0-4.35,2.51v35A2.91,2.91,0,0,0,58.21,80.34Zm4.35-7.53v-25L84.17,60.33Z"/></svg>
